<svg width="113" height="36" viewBox="0 0 113 36" fill="none" xmlns="http://www.w3.org/2000/svg">
<path d="M23.3745 11.1357C23.1428 10.9105 22.8178 10.8082 22.4997 10.8605C22.1811 10.9127 21.9058 11.1127 21.758 11.3998C21.2496 12.3875 20.6038 13.2952 19.844 14.0975C19.9198 13.5179 19.9579 12.9348 19.9579 12.3502C19.9579 11.2284 19.8076 10.074 19.5109 8.91863C18.5355 5.12375 15.9778 1.91449 12.4938 0.113763C12.1905 -0.0429603 11.829 -0.0374579 11.5306 0.128437C11.2322 0.2944 11.0367 0.598677 11.01 0.939027C10.7383 4.38763 8.96202 7.5251 6.13371 9.54901C6.09628 9.57596 6.05912 9.60327 6.02196 9.63045C5.94498 9.68676 5.87242 9.74002 5.80464 9.78473C5.79401 9.79181 5.7835 9.79901 5.77318 9.80641C3.99439 11.0799 2.52669 12.7776 1.5285 14.7164C0.514258 16.6885 0 18.8047 0 21.0061C0 22.1275 0.150336 23.282 0.446865 24.4375C2.01173 30.5283 7.49293 34.7822 13.7762 34.7822C21.372 34.7822 27.5515 28.6022 27.5515 21.0061C27.5515 17.2602 26.0681 13.7548 23.3745 11.1357Z" fill="#011632"/>
<path d="M13.2487 25.2953C15.5772 25.2953 17.4648 23.4078 17.4648 21.0793C17.4648 18.7509 15.5772 16.8633 13.2487 16.8633C10.9203 16.8633 9.03271 18.7509 9.03271 21.0793C9.03271 23.4078 10.9203 25.2953 13.2487 25.2953Z" fill="white"/>
<path d="M107.906 15.1609V12.5665H107.102V11.9924H109.357V12.5665H108.565V15.1609H107.906ZM109.683 15.1609V11.9924H110.321L111.508 13.566H111.21L112.362 11.9924H113V15.1609H112.341V12.7197L112.605 12.7792L111.384 14.3528H111.299L110.121 12.7792L110.342 12.7197V15.1609H109.683Z" fill="#011632"/>
<path d="M44.1229 28.8256C45.1846 28.8256 46.1235 28.6317 46.9403 28.2438C47.7567 27.8355 48.3794 27.2231 48.808 26.4065V28.4582H53.0954V11.7387H48.5019V21.507C48.5019 22.4665 48.2161 23.2423 47.6446 23.8343C47.0727 24.4059 46.338 24.6917 45.4399 24.6917C44.5415 24.6917 43.8067 24.4059 43.2348 23.8343C42.6633 23.2423 42.3776 22.4665 42.3776 21.507V11.7387H37.7845V21.8745C37.7845 23.9568 38.3251 25.641 39.4073 26.9271C40.5098 28.1928 42.0814 28.8256 44.1229 28.8256Z" fill="#011632"/>
<path d="M56.4524 10.238H61.0455V5.64473H56.4524V10.238ZM56.4524 28.4579H61.0455V11.7384H56.4524V28.4579Z" fill="#011632"/>
<path d="M66.428 28.4582H71.0211V15.7195H74.6037V11.7387H71.0211V11.4937C71.0211 10.0035 71.8888 9.25832 73.624 9.25832C73.9098 9.25832 74.2467 9.28897 74.6345 9.3502V5.43063C74.1651 5.32854 73.624 5.27751 73.0113 5.27751C70.9291 5.27751 69.3063 5.8185 68.1425 6.90045C66.9995 7.98243 66.428 9.51352 66.428 11.4937V11.7387H63.6106V15.7195H66.428V28.4582Z" fill="#011632"/>
<path d="M76.9664 28.4583H81.5599V19.4555C81.5599 18.2102 81.9068 17.2507 82.6008 16.577C83.2951 15.8829 84.2036 15.5359 85.3262 15.5359H86.7653V11.5551H85.7856C84.7647 11.5551 83.8562 11.749 83.0602 12.1369C82.2846 12.5043 81.6823 13.2087 81.2537 14.2498V11.7388H76.9664V28.4583Z" fill="#011632"/>
<path d="M91.3815 35.2562C94.4435 35.2562 96.6586 33.5108 98.0265 30.0199L105.192 11.7387H100.262L96.3116 22.4869L92.3612 11.7387H87.4311L94.0148 28.4582L93.7087 29.1625C93.4638 29.7137 93.1472 30.2036 92.7594 30.6323C92.3716 31.061 91.7285 31.2754 90.83 31.2754C90.0953 31.2754 89.4013 31.1733 88.7478 30.9692V34.7356C89.0951 34.9194 89.493 35.0521 89.9424 35.1337C90.4118 35.2154 90.8917 35.2562 91.3815 35.2562Z" fill="#011632"/>
</svg>
