<svg width="27" height="27" viewBox="0 0 27 27" fill="none" xmlns="http://www.w3.org/2000/svg">
<path d="M20.8125 10.125H16.875V6.1875C16.8741 5.44185 16.5775 4.72699 16.0503 4.19973C15.523 3.67248 14.8082 3.37588 14.0625 3.375H6.1875C5.44185 3.37588 4.72699 3.67248 4.19973 4.19973C3.67248 4.72699 3.37588 5.44185 3.375 6.1875V11.25C3.37585 11.8981 3.60011 12.526 4.00996 13.028C4.41981 13.53 4.99021 13.8754 5.625 14.0059V15.7791C5.62578 15.9997 5.6935 16.2148 5.8192 16.3961C5.9449 16.5773 6.12266 16.7162 6.32897 16.7942C6.4645 16.8478 6.60892 16.8754 6.75467 16.8755C6.91095 16.8757 7.06556 16.8434 7.20872 16.7807C7.35188 16.718 7.48046 16.6263 7.58633 16.5113L9.85089 14.0625H10.125V18C10.1259 18.7457 10.4225 19.4605 10.9497 19.9878C11.477 20.515 12.1918 20.8116 12.9375 20.8125H17.1469L19.415 23.2586C19.5212 23.374 19.6501 23.466 19.7937 23.529C19.9373 23.5919 20.0924 23.6243 20.2492 23.6242C20.3941 23.6239 20.5377 23.5967 20.6727 23.544C20.8788 23.4657 21.0563 23.3266 21.1817 23.1452C21.3071 22.9638 21.3745 22.7486 21.375 22.5281V20.7563C22.0098 20.6257 22.5803 20.2803 22.9901 19.7782C23.4 19.2762 23.6242 18.6481 23.625 18V12.9375C23.6241 12.1918 23.3275 11.477 22.8003 10.9497C22.273 10.4225 21.5582 10.1259 20.8125 10.125V10.125ZM9.6048 12.9375C9.5272 12.9375 9.45043 12.9535 9.37934 12.9846C9.30824 13.0157 9.24435 13.0612 9.1917 13.1182L6.75 15.7791V13.5C6.75 13.3508 6.69074 13.2077 6.58525 13.1023C6.47976 12.9968 6.33668 12.9375 6.1875 12.9375C5.7401 12.937 5.31116 12.7591 4.9948 12.4427C4.67844 12.1263 4.50049 11.6974 4.5 11.25V6.1875C4.50049 5.7401 4.67844 5.31116 4.9948 4.9948C5.31116 4.67844 5.7401 4.50049 6.1875 4.5H14.0625C14.5099 4.50049 14.9388 4.67844 15.2552 4.9948C15.5716 5.31116 15.7495 5.7401 15.75 6.1875V11.25C15.7495 11.6974 15.5716 12.1263 15.2552 12.4427C14.9388 12.7591 14.5099 12.937 14.0625 12.9375H9.6048ZM22.5 18C22.4995 18.4474 22.3216 18.8763 22.0052 19.1927C21.6888 19.5091 21.2599 19.687 20.8125 19.6875C20.6633 19.6875 20.5202 19.7468 20.4148 19.8523C20.3093 19.9577 20.25 20.1008 20.25 20.25L20.2407 22.4944L17.805 19.8675C17.7524 19.8107 17.6885 19.7655 17.6175 19.7345C17.5466 19.7035 17.4699 19.6875 17.3925 19.6875H12.9375C12.4901 19.687 12.0612 19.5091 11.7448 19.1927C11.4284 18.8763 11.2505 18.4474 11.25 18V14.0625H14.0625C14.8082 14.0616 15.523 13.765 16.0503 13.2378C16.5775 12.7105 16.8741 11.9957 16.875 11.25H20.8125C21.2599 11.2505 21.6888 11.4284 22.0052 11.7448C22.3216 12.0612 22.4995 12.4901 22.5 12.9375V18Z" fill="white"/>
</svg>
