<svg width="48" height="48" viewBox="0 0 48 48" fill="none" xmlns="http://www.w3.org/2000/svg">
<g clip-path="url(#clip0_1_774)">
<path d="M7.98763 3.865C7.93083 3.52932 7.66795 3.26644 7.33228 3.20964C6.02877 2.99186 5.00744 1.97023 4.79006 0.666625C4.71636 0.231055 4.30349 -0.0624238 3.86792 0.011271C3.53224 0.068067 3.26936 0.330948 3.21257 0.666625C2.99518 1.97023 1.97386 2.99196 0.670348 3.20964C0.234779 3.28334 -0.0587006 3.69621 0.0149941 4.13178C0.0717901 4.46746 0.334671 4.73034 0.670348 4.78713C1.97386 5.00492 2.99518 6.02654 3.21257 7.33015C3.28626 7.76572 3.69913 8.0592 4.1347 7.98551C4.47038 7.92871 4.73326 7.66583 4.79006 7.33015C5.00744 6.02654 6.02877 5.00492 7.33228 4.78713C7.76784 4.71354 8.06132 4.30067 7.98763 3.865ZM4.00131 5.14071C3.68943 4.69684 3.30286 4.31027 2.85899 3.99839C3.30286 3.68651 3.68943 3.29994 4.00131 2.85607C4.31319 3.29994 4.69976 3.68651 5.14363 3.99839C4.69966 4.31037 4.31319 4.69684 4.00131 5.14071Z" fill="white"/>
<path d="M31.7802 4.79784C30.2329 4.79774 28.7018 5.11202 27.2797 5.72178C25.1843 6.61441 22.8155 6.61441 20.7201 5.72178C14.9238 3.23665 8.21033 5.92096 5.72521 11.7174C5.11555 13.1395 4.80117 14.6705 4.80127 16.2178C4.79967 20.9288 6.12368 25.5452 8.6218 29.5393L8.85058 29.9065L12.3047 45.1054C12.759 47.107 14.75 48.3615 16.7516 47.9072C18.2241 47.573 19.348 46.3813 19.5954 44.8918L21.9953 30.4976C22.1809 29.39 23.2294 28.6428 24.337 28.8284C25.1924 28.9719 25.8628 29.6422 26.0062 30.4976L28.406 44.891C28.7438 46.9161 30.6591 48.2839 32.6842 47.9462C34.1724 47.698 35.3629 46.575 35.6975 45.1038L39.1508 29.9049L39.3796 29.5377C41.8769 25.5439 43.2003 20.9281 43.1985 16.2178C43.1989 9.91118 38.0867 4.79834 31.7802 4.79784ZM38.0213 28.6922L37.7205 29.1721C37.6733 29.2482 37.6388 29.3314 37.6181 29.4185L34.136 44.747C33.8767 45.8873 32.7421 46.6016 31.6018 46.3423C30.7638 46.1518 30.1242 45.4738 29.9827 44.6262L27.5829 30.2328C27.2525 28.2541 25.3805 26.9177 23.4017 27.2482C21.8715 27.5036 20.6724 28.7027 20.417 30.2328L18.0171 44.627C17.826 45.7802 16.7361 46.5603 15.5829 46.3691C14.734 46.2284 14.0547 45.5879 13.8646 44.7486L10.3817 29.4193C10.361 29.3322 10.3265 29.249 10.2793 29.1729L9.9785 28.693C7.63957 24.9524 6.39996 20.6294 6.40116 16.2178C6.40736 10.7973 10.7999 6.40473 16.2205 6.39853C17.5506 6.39713 18.8669 6.66711 20.089 7.19207C22.5873 8.258 25.4125 8.258 27.9108 7.19207C32.896 5.05602 38.6689 7.36556 40.8049 12.3507C41.3286 13.5727 41.5986 14.8883 41.5987 16.2178C41.5997 20.6292 40.3601 24.9518 38.0213 28.6922Z" fill="white"/>
<path d="M13.6007 10.3972L13.4407 9.61328C11.8408 9.93406 8.80103 11.6811 8.80103 15.9968H10.4009C10.4009 11.9403 13.6247 11.21 13.7607 11.1804L13.6007 10.3972Z" fill="white"/>
<path d="M16.8006 9.59766H15.2007V11.1975H16.8006V9.59766Z" fill="white"/>
<path d="M47.9849 37.4627C47.9281 37.127 47.6653 36.8641 47.3296 36.8073C46.0261 36.5895 45.0048 35.5679 44.7874 34.2643C44.7137 33.8287 44.3008 33.5352 43.8652 33.6089C43.5296 33.6657 43.2667 33.9286 43.2099 34.2643C42.9925 35.5679 41.9712 36.5895 40.6677 36.8073C40.2321 36.881 39.9386 37.2939 40.0123 37.7294C40.0691 38.0651 40.332 38.328 40.6677 38.3848C41.9712 38.6026 42.9925 39.6242 43.2099 40.9278C43.2836 41.3634 43.6964 41.6569 44.132 41.5832C44.4677 41.5264 44.7306 41.2635 44.7874 40.9278C45.0048 39.6242 46.0261 38.6026 47.3296 38.3848C47.7652 38.3112 48.0586 37.8983 47.9849 37.4627ZM43.9986 38.7384C43.6867 38.2945 43.3002 37.9079 42.8563 37.596C43.3002 37.2842 43.6867 36.8976 43.9986 36.4537C44.3105 36.8976 44.6971 37.2842 45.1409 37.596C44.697 37.908 44.3105 38.2945 43.9986 38.7384Z" fill="white"/>
</g>
<defs>
<clipPath id="clip0_1_774">
<rect width="48" height="48" fill="white"/>
</clipPath>
</defs>
</svg>
