<svg width="24" height="25" viewBox="0 0 24 25" fill="none" xmlns="http://www.w3.org/2000/svg">
<path fill-rule="evenodd" clip-rule="evenodd" d="M3.28872 4.41781L3.36127 4.34199C5.28869 2.4144 6.54385 1.90347 7.88307 2.67358C8.2683 2.8951 8.62945 3.20519 9.12054 3.70397L10.6269 5.26599C11.4589 6.17389 11.6481 7.04474 11.3772 8.06461L11.3398 8.19962L11.2984 8.33387L11.097 8.9247C10.666 10.2497 10.846 10.9972 12.3795 12.5303C13.9742 14.1246 14.7186 14.2551 16.1457 13.7563L16.4001 13.6679L16.7077 13.568L16.8423 13.5307C17.9263 13.2415 18.842 13.4723 19.8132 14.4428L21.0269 15.6151L21.3842 15.9665C21.7803 16.3705 22.0421 16.6905 22.2355 17.0288C23.0008 18.3677 22.4893 19.6221 20.5063 21.5977L20.3177 21.7888C20.0216 22.0742 19.745 22.2786 19.3386 22.4715C18.6565 22.7954 17.8506 22.9175 16.9142 22.7873C14.6067 22.4664 11.6802 20.6458 7.97188 16.9384C7.67002 16.6366 7.3809 16.3407 7.10425 16.0504L6.56748 15.4776C1.53762 10.0128 1.09389 6.65584 3.15518 4.55046L3.28872 4.41781ZM7.90639 4.61146C7.58059 4.29027 7.34393 4.09447 7.13529 3.97449C6.67376 3.7091 6.17547 3.82128 5.25327 4.61501L4.9635 4.87388C4.91296 4.92054 4.86126 4.96897 4.80835 5.01922L4.47608 5.34285L4.44614 5.38026L4.22088 5.60657C3.67653 6.16258 3.41868 6.84118 3.64088 8.00821C4.00548 9.92323 5.67439 12.5211 9.03238 15.8782C12.5313 19.3762 15.1971 21.0347 17.1208 21.3022C18.2422 21.4581 18.8142 21.1866 19.3975 20.5889L19.8424 20.14C20.051 19.9217 20.2292 19.7239 20.3797 19.5431L20.585 19.2844C21.1097 18.5856 21.1576 18.1664 20.9332 17.7738C20.8478 17.6245 20.7236 17.4607 20.5429 17.2606L20.2976 17.0016L20.1525 16.8563L18.6212 15.3777C18.1095 14.9059 17.7599 14.8389 17.2289 14.9806L17.0757 15.0246L16.4414 15.24C14.6013 15.8343 13.2738 15.5461 11.3189 13.5917C9.29427 11.5676 9.05682 10.2159 9.73519 8.26971L9.77871 8.14465L9.89905 7.78207L9.95821 7.55097C10.0631 7.048 9.94334 6.69731 9.40266 6.15654C9.3804 6.13428 9.35552 6.1092 9.32845 6.08174L7.90639 4.61146Z" fill="#CFCFCF"/>
</svg>
