<svg width="24" height="24" viewBox="0 0 24 24" fill="none" xmlns="http://www.w3.org/2000/svg">
<path d="M20.125 8.25H15.75V3.875C15.749 3.0465 15.4195 2.25221 14.8336 1.66637C14.2478 1.08053 13.4535 0.750976 12.625 0.75H3.875C3.0465 0.750976 2.25221 1.08053 1.66637 1.66637C1.08053 2.25221 0.750976 3.0465 0.75 3.875V9.5C0.750948 10.2201 1.00012 10.9178 1.45551 11.4756C1.9109 12.0334 2.54467 12.4171 3.25 12.5621V14.5323C3.25087 14.7774 3.32611 15.0165 3.46578 15.2179C3.60545 15.4193 3.80295 15.5735 4.03219 15.6603C4.18278 15.7198 4.34325 15.7505 4.50519 15.7506C4.67883 15.7507 4.85063 15.7149 5.00969 15.6452C5.16875 15.5755 5.31162 15.4736 5.42925 15.3459L7.94544 12.625H8.25V17C8.25098 17.8285 8.58053 18.6228 9.16637 19.2086C9.75221 19.7945 10.5465 20.124 11.375 20.125H16.0521L18.5722 22.8429C18.6902 22.9711 18.8335 23.0734 18.993 23.1433C19.1526 23.2132 19.3249 23.2493 19.4991 23.2491C19.6601 23.2488 19.8196 23.2186 19.9696 23.16C20.1987 23.073 20.3959 22.9184 20.5352 22.7169C20.6746 22.5154 20.7495 22.2763 20.75 22.0313V20.0625C21.4554 19.9175 22.0892 19.5337 22.5446 18.9758C23 18.418 23.2491 17.7201 23.25 17V11.375C23.249 10.5465 22.9195 9.75221 22.3336 9.16637C21.7478 8.58053 20.9535 8.25098 20.125 8.25V8.25ZM7.672 11.375C7.58577 11.375 7.50048 11.3928 7.42148 11.4274C7.34249 11.4619 7.2715 11.5125 7.213 11.5758L4.5 14.5324V12C4.5 11.8342 4.43415 11.6753 4.31694 11.5581C4.19973 11.4408 4.04076 11.375 3.875 11.375C3.37789 11.3745 2.90129 11.1767 2.54978 10.8252C2.19827 10.4737 2.00055 9.99711 2 9.5V3.875C2.00055 3.37789 2.19827 2.90129 2.54978 2.54978C2.90129 2.19827 3.37789 2.00055 3.875 2H12.625C13.1221 2.00055 13.5987 2.19827 13.9502 2.54978C14.3017 2.90129 14.4995 3.37789 14.5 3.875V9.5C14.4995 9.99711 14.3017 10.4737 13.9502 10.8252C13.5987 11.1767 13.1221 11.3745 12.625 11.375H7.672ZM22 17C21.9995 17.4971 21.8017 17.9737 21.4502 18.3252C21.0987 18.6767 20.6221 18.8745 20.125 18.875C19.9592 18.875 19.8003 18.9408 19.6831 19.0581C19.5658 19.1753 19.5 19.3342 19.5 19.5L19.4896 21.9938L16.7834 19.075C16.7248 19.0119 16.6539 18.9616 16.575 18.9272C16.4962 18.8928 16.4111 18.875 16.325 18.875H11.375C10.8779 18.8745 10.4013 18.6767 10.0498 18.3252C9.69827 17.9737 9.50055 17.4971 9.5 17V12.625H12.625C13.4535 12.624 14.2478 12.2945 14.8336 11.7086C15.4195 11.1228 15.749 10.3285 15.75 9.5H20.125C20.6221 9.50055 21.0987 9.69827 21.4502 10.0498C21.8017 10.4013 21.9995 10.8779 22 11.375V17Z" fill="#1376F8"/>
</svg>
